<svg xmlns="http://www.w3.org/2000/svg" width="512" height="512" viewBox="0 0 512 512"><path d="M 512.0,256.0 L 512.0,284.2 L 512.0,294.9 L 512.0,303.0 L 511.9,309.8 L 511.9,315.6 L 511.8,320.9 L 511.8,325.7 L 511.7,330.2 L 511.6,334.4 L 511.5,338.3 L 511.5,342.0 L 511.3,345.6 L 511.2,348.9 L 511.1,352.2 L 511.0,355.3 L 510.8,358.3 L 510.7,361.2 L 510.5,364.0 L 510.4,366.7 L 510.2,369.4 L 510.0,372.0 L 509.8,374.5 L 509.6,376.9 L 509.4,379.3 L 509.2,381.6 L 508.9,383.9 L 508.7,386.1 L 508.4,388.3 L 508.2,390.4 L 507.9,392.5 L 507.6,394.6 L 507.3,396.6 L 507.0,398.6 L 506.7,400.5 L 506.4,402.4 L 506.1,404.3 L 505.8,406.1 L 505.4,407.9 L 505.1,409.7 L 504.7,411.4 L 504.3,413.1 L 503.9,414.8 L 503.6,416.5 L 503.2,418.1 L 502.7,419.8 L 502.3,421.4 L 501.9,422.9 L 501.5,424.5 L 501.0,426.0 L 500.6,427.5 L 500.1,429.0 L 499.6,430.4 L 499.1,431.9 L 498.6,433.3 L 498.1,434.7 L 497.6,436.1 L 497.1,437.5 L 496.5,438.8 L 496.0,440.1 L 495.4,441.4 L 494.9,442.7 L 494.3,444.0 L 493.7,445.3 L 493.1,446.5 L 492.5,447.8 L 491.9,449.0 L 491.3,450.2 L 490.6,451.4 L 490.0,452.5 L 489.3,453.7 L 488.6,454.8 L 488.0,455.9 L 487.3,457.0 L 486.6,458.1 L 485.9,459.2 L 485.1,460.3 L 484.4,461.4 L 483.7,462.4 L 482.9,463.4 L 482.2,464.4 L 481.4,465.4 L 480.6,466.4 L 479.8,467.4 L 479.0,468.4 L 478.2,469.3 L 477.3,470.3 L 476.5,471.2 L 475.6,472.1 L 474.8,473.0 L 473.9,473.9 L 473.0,474.8 L 472.1,475.6 L 471.2,476.5 L 470.3,477.3 L 469.3,478.2 L 468.4,479.0 L 467.4,479.8 L 466.4,480.6 L 465.4,481.4 L 464.4,482.2 L 463.4,482.9 L 462.4,483.7 L 461.4,484.4 L 460.3,485.1 L 459.2,485.9 L 458.1,486.6 L 457.0,487.3 L 455.9,488.0 L 454.8,488.6 L 453.7,489.3 L 452.5,490.0 L 451.4,490.6 L 450.2,491.3 L 449.0,491.9 L 447.8,492.5 L 446.5,493.1 L 445.3,493.7 L 444.0,494.3 L 442.7,494.9 L 441.4,495.4 L 440.1,496.0 L 438.8,496.5 L 437.5,497.1 L 436.1,497.6 L 434.7,498.1 L 433.3,498.6 L 431.9,499.1 L 430.4,499.6 L 429.0,500.1 L 427.5,500.6 L 426.0,501.0 L 424.5,501.5 L 422.9,501.9 L 421.4,502.3 L 419.8,502.7 L 418.1,503.2 L 416.5,503.6 L 414.8,503.9 L 413.1,504.3 L 411.4,504.7 L 409.7,505.1 L 407.9,505.4 L 406.1,505.8 L 404.3,506.1 L 402.4,506.4 L 400.5,506.7 L 398.6,507.0 L 396.6,507.3 L 394.6,507.6 L 392.5,507.9 L 390.4,508.2 L 388.3,508.4 L 386.1,508.7 L 383.9,508.9 L 381.6,509.2 L 379.3,509.4 L 376.9,509.6 L 374.5,509.8 L 372.0,510.0 L 369.4,510.2 L 366.7,510.4 L 364.0,510.5 L 361.2,510.7 L 358.3,510.8 L 355.3,511.0 L 352.2,511.1 L 348.9,511.2 L 345.6,511.3 L 342.0,511.5 L 338.3,511.5 L 334.4,511.6 L 330.2,511.7 L 325.7,511.8 L 320.9,511.8 L 315.6,511.9 L 309.8,511.9 L 303.0,512.0 L 294.9,512.0 L 284.2,512.0 L 256.0,512.0 L 227.8,512.0 L 217.1,512.0 L 209.0,512.0 L 202.2,511.9 L 196.4,511.9 L 191.1,511.8 L 186.3,511.8 L 181.8,511.7 L 177.6,511.6 L 173.7,511.5 L 170.0,511.5 L 166.4,511.3 L 163.1,511.2 L 159.8,511.1 L 156.7,511.0 L 153.7,510.8 L 150.8,510.7 L 148.0,510.5 L 145.3,510.4 L 142.6,510.2 L 140.0,510.0 L 137.5,509.8 L 135.1,509.6 L 132.7,509.4 L 130.4,509.2 L 128.1,508.9 L 125.9,508.7 L 123.7,508.4 L 121.6,508.2 L 119.5,507.9 L 117.4,507.6 L 115.4,507.3 L 113.4,507.0 L 111.5,506.7 L 109.6,506.4 L 107.7,506.1 L 105.9,505.8 L 104.1,505.4 L 102.3,505.1 L 100.6,504.7 L 98.9,504.3 L 97.2,503.9 L 95.5,503.6 L 93.9,503.2 L 92.2,502.7 L 90.6,502.3 L 89.1,501.9 L 87.5,501.5 L 86.0,501.0 L 84.5,500.6 L 83.0,500.1 L 81.6,499.6 L 80.1,499.1 L 78.7,498.6 L 77.3,498.1 L 75.9,497.6 L 74.5,497.1 L 73.2,496.5 L 71.9,496.0 L 70.6,495.4 L 69.3,494.9 L 68.0,494.3 L 66.7,493.7 L 65.5,493.1 L 64.2,492.5 L 63.0,491.9 L 61.8,491.3 L 60.6,490.6 L 59.5,490.0 L 58.3,489.3 L 57.2,488.6 L 56.1,488.0 L 55.0,487.3 L 53.9,486.6 L 52.8,485.9 L 51.7,485.1 L 50.6,484.4 L 49.6,483.7 L 48.6,482.9 L 47.6,482.2 L 46.6,481.4 L 45.6,480.6 L 44.6,479.8 L 43.6,479.0 L 42.7,478.2 L 41.7,477.3 L 40.8,476.5 L 39.9,475.6 L 39.0,474.8 L 38.1,473.9 L 37.2,473.0 L 36.4,472.1 L 35.5,471.2 L 34.7,470.3 L 33.8,469.3 L 33.0,468.4 L 32.2,467.4 L 31.4,466.4 L 30.6,465.4 L 29.8,464.4 L 29.1,463.4 L 28.3,462.4 L 27.6,461.4 L 26.9,460.3 L 26.1,459.2 L 25.4,458.1 L 24.7,457.0 L 24.0,455.9 L 23.4,454.8 L 22.7,453.7 L 22.0,452.5 L 21.4,451.4 L 20.7,450.2 L 20.1,449.0 L 19.5,447.8 L 18.9,446.5 L 18.3,445.3 L 17.7,444.0 L 17.1,442.7 L 16.6,441.4 L 16.0,440.1 L 15.5,438.8 L 14.9,437.5 L 14.4,436.1 L 13.9,434.7 L 13.4,433.3 L 12.9,431.9 L 12.4,430.4 L 11.9,429.0 L 11.4,427.5 L 11.0,426.0 L 10.5,424.5 L 10.1,422.9 L 9.7,421.4 L 9.3,419.8 L 8.8,418.1 L 8.4,416.5 L 8.1,414.8 L 7.7,413.1 L 7.3,411.4 L 6.9,409.7 L 6.6,407.9 L 6.2,406.1 L 5.9,404.3 L 5.6,402.4 L 5.3,400.5 L 5.0,398.6 L 4.7,396.6 L 4.4,394.6 L 4.1,392.5 L 3.8,390.4 L 3.6,388.3 L 3.3,386.1 L 3.1,383.9 L 2.8,381.6 L 2.6,379.3 L 2.4,376.9 L 2.2,374.5 L 2.0,372.0 L 1.8,369.4 L 1.6,366.7 L 1.5,364.0 L 1.3,361.2 L 1.2,358.3 L 1.0,355.3 L 0.9,352.2 L 0.8,348.9 L 0.7,345.6 L 0.5,342.0 L 0.5,338.3 L 0.4,334.4 L 0.3,330.2 L 0.2,325.7 L 0.2,320.9 L 0.1,315.6 L 0.1,309.8 L 0.0,303.0 L 0.0,294.9 L 0.0,284.2 L 0.0,256.0 L 0.0,227.8 L 0.0,217.1 L 0.0,209.0 L 0.1,202.2 L 0.1,196.4 L 0.2,191.1 L 0.2,186.3 L 0.3,181.8 L 0.4,177.6 L 0.5,173.7 L 0.5,170.0 L 0.7,166.4 L 0.8,163.1 L 0.9,159.8 L 1.0,156.7 L 1.2,153.7 L 1.3,150.8 L 1.5,148.0 L 1.6,145.3 L 1.8,142.6 L 2.0,140.0 L 2.2,137.5 L 2.4,135.1 L 2.6,132.7 L 2.8,130.4 L 3.1,128.1 L 3.3,125.9 L 3.6,123.7 L 3.8,121.6 L 4.1,119.5 L 4.4,117.4 L 4.7,115.4 L 5.0,113.4 L 5.3,111.5 L 5.6,109.6 L 5.9,107.7 L 6.2,105.9 L 6.6,104.1 L 6.9,102.3 L 7.3,100.6 L 7.7,98.9 L 8.1,97.2 L 8.4,95.5 L 8.8,93.9 L 9.3,92.2 L 9.7,90.6 L 10.1,89.1 L 10.5,87.5 L 11.0,86.0 L 11.4,84.5 L 11.9,83.0 L 12.4,81.6 L 12.9,80.1 L 13.4,78.7 L 13.9,77.3 L 14.4,75.9 L 14.9,74.5 L 15.5,73.2 L 16.0,71.9 L 16.6,70.6 L 17.1,69.3 L 17.7,68.0 L 18.3,66.7 L 18.9,65.5 L 19.5,64.2 L 20.1,63.0 L 20.7,61.8 L 21.4,60.6 L 22.0,59.5 L 22.7,58.3 L 23.4,57.2 L 24.0,56.1 L 24.7,55.0 L 25.4,53.9 L 26.1,52.8 L 26.9,51.7 L 27.6,50.6 L 28.3,49.6 L 29.1,48.6 L 29.8,47.6 L 30.6,46.6 L 31.4,45.6 L 32.2,44.6 L 33.0,43.6 L 33.8,42.7 L 34.7,41.7 L 35.5,40.8 L 36.4,39.9 L 37.2,39.0 L 38.1,38.1 L 39.0,37.2 L 39.9,36.4 L 40.8,35.5 L 41.7,34.7 L 42.7,33.8 L 43.6,33.0 L 44.6,32.2 L 45.6,31.4 L 46.6,30.6 L 47.6,29.8 L 48.6,29.1 L 49.6,28.3 L 50.6,27.6 L 51.7,26.9 L 52.8,26.1 L 53.9,25.4 L 55.0,24.7 L 56.1,24.0 L 57.2,23.4 L 58.3,22.7 L 59.5,22.0 L 60.6,21.4 L 61.8,20.7 L 63.0,20.1 L 64.2,19.5 L 65.5,18.9 L 66.7,18.3 L 68.0,17.7 L 69.3,17.1 L 70.6,16.6 L 71.9,16.0 L 73.2,15.5 L 74.5,14.9 L 75.9,14.4 L 77.3,13.9 L 78.7,13.4 L 80.1,12.9 L 81.6,12.4 L 83.0,11.9 L 84.5,11.4 L 86.0,11.0 L 87.5,10.5 L 89.1,10.1 L 90.6,9.7 L 92.2,9.3 L 93.9,8.8 L 95.5,8.4 L 97.2,8.1 L 98.9,7.7 L 100.6,7.3 L 102.3,6.9 L 104.1,6.6 L 105.9,6.2 L 107.7,5.9 L 109.6,5.6 L 111.5,5.3 L 113.4,5.0 L 115.4,4.7 L 117.4,4.4 L 119.5,4.1 L 121.6,3.8 L 123.7,3.6 L 125.9,3.3 L 128.1,3.1 L 130.4,2.8 L 132.7,2.6 L 135.1,2.4 L 137.5,2.2 L 140.0,2.0 L 142.6,1.8 L 145.3,1.6 L 148.0,1.5 L 150.8,1.3 L 153.7,1.2 L 156.7,1.0 L 159.8,0.9 L 163.1,0.8 L 166.4,0.7 L 170.0,0.5 L 173.7,0.5 L 177.6,0.4 L 181.8,0.3 L 186.3,0.2 L 191.1,0.2 L 196.4,0.1 L 202.2,0.1 L 209.0,0.0 L 217.1,0.0 L 227.8,0.0 L 256.0,0.0 L 284.2,0.0 L 294.9,0.0 L 303.0,0.0 L 309.8,0.1 L 315.6,0.1 L 320.9,0.2 L 325.7,0.2 L 330.2,0.3 L 334.4,0.4 L 338.3,0.5 L 342.0,0.5 L 345.6,0.7 L 348.9,0.8 L 352.2,0.9 L 355.3,1.0 L 358.3,1.2 L 361.2,1.3 L 364.0,1.5 L 366.7,1.6 L 369.4,1.8 L 372.0,2.0 L 374.5,2.2 L 376.9,2.4 L 379.3,2.6 L 381.6,2.8 L 383.9,3.1 L 386.1,3.3 L 388.3,3.6 L 390.4,3.8 L 392.5,4.1 L 394.6,4.4 L 396.6,4.7 L 398.6,5.0 L 400.5,5.3 L 402.4,5.6 L 404.3,5.9 L 406.1,6.2 L 407.9,6.6 L 409.7,6.9 L 411.4,7.3 L 413.1,7.7 L 414.8,8.1 L 416.5,8.4 L 418.1,8.8 L 419.8,9.3 L 421.4,9.7 L 422.9,10.1 L 424.5,10.5 L 426.0,11.0 L 427.5,11.4 L 429.0,11.9 L 430.4,12.4 L 431.9,12.9 L 433.3,13.4 L 434.7,13.9 L 436.1,14.4 L 437.5,14.9 L 438.8,15.5 L 440.1,16.0 L 441.4,16.6 L 442.7,17.1 L 444.0,17.7 L 445.3,18.3 L 446.5,18.9 L 447.8,19.5 L 449.0,20.1 L 450.2,20.7 L 451.4,21.4 L 452.5,22.0 L 453.7,22.7 L 454.8,23.4 L 455.9,24.0 L 457.0,24.7 L 458.1,25.4 L 459.2,26.1 L 460.3,26.9 L 461.4,27.6 L 462.4,28.3 L 463.4,29.1 L 464.4,29.8 L 465.4,30.6 L 466.4,31.4 L 467.4,32.2 L 468.4,33.0 L 469.3,33.8 L 470.3,34.7 L 471.2,35.5 L 472.1,36.4 L 473.0,37.2 L 473.9,38.1 L 474.8,39.0 L 475.6,39.9 L 476.5,40.8 L 477.3,41.7 L 478.2,42.7 L 479.0,43.6 L 479.8,44.6 L 480.6,45.6 L 481.4,46.6 L 482.2,47.6 L 482.9,48.6 L 483.7,49.6 L 484.4,50.6 L 485.1,51.7 L 485.9,52.8 L 486.6,53.9 L 487.3,55.0 L 488.0,56.1 L 488.6,57.2 L 489.3,58.3 L 490.0,59.5 L 490.6,60.6 L 491.3,61.8 L 491.9,63.0 L 492.5,64.2 L 493.1,65.5 L 493.7,66.7 L 494.3,68.0 L 494.9,69.3 L 495.4,70.6 L 496.0,71.9 L 496.5,73.2 L 497.1,74.5 L 497.6,75.9 L 498.1,77.3 L 498.6,78.7 L 499.1,80.1 L 499.6,81.6 L 500.1,83.0 L 500.6,84.5 L 501.0,86.0 L 501.5,87.5 L 501.9,89.1 L 502.3,90.6 L 502.7,92.2 L 503.2,93.9 L 503.6,95.5 L 503.9,97.2 L 504.3,98.9 L 504.7,100.6 L 505.1,102.3 L 505.4,104.1 L 505.8,105.9 L 506.1,107.7 L 506.4,109.6 L 506.7,111.5 L 507.0,113.4 L 507.3,115.4 L 507.6,117.4 L 507.9,119.5 L 508.2,121.6 L 508.4,123.7 L 508.7,125.9 L 508.9,128.1 L 509.2,130.4 L 509.4,132.7 L 509.6,135.1 L 509.8,137.5 L 510.0,140.0 L 510.2,142.6 L 510.4,145.3 L 510.5,148.0 L 510.7,150.8 L 510.8,153.7 L 511.0,156.7 L 511.1,159.8 L 511.2,163.1 L 511.3,166.4 L 511.5,170.0 L 511.5,173.7 L 511.6,177.6 L 511.7,181.8 L 511.8,186.3 L 511.8,191.1 L 511.9,196.4 L 511.9,202.2 L 512.0,209.0 L 512.0,217.1 L 512.0,227.8 Z" fill="#202020"/><path d="M 374.0,256.0 L 374.0,257.2 L 374.0,258.4 L 373.9,259.5 L 373.9,260.7 L 373.8,261.9 L 373.7,263.1 L 373.5,264.2 L 373.4,265.4 L 373.3,266.5 L 373.1,267.6 L 372.9,268.7 L 372.7,269.8 L 372.5,270.9 L 372.3,272.0 L 372.0,273.0 L 371.7,274.0 L 371.5,275.1 L 371.2,276.0 L 370.9,277.0 L 370.6,277.9 L 370.3,278.9 L 370.0,279.7 L 369.6,280.6 L 369.3,281.4 L 368.9,282.3 L 368.6,283.0 L 368.2,283.8 L 367.9,284.5 L 367.5,285.2 L 367.2,285.9 L 366.8,286.5 L 366.4,287.1 L 366.1,287.7 L 365.7,288.3 L 365.4,288.8 L 365.0,289.3 L 364.7,289.8 L 364.4,290.2 L 364.1,290.6 L 363.7,291.0 L 363.4,291.3 L 363.2,291.7 L 362.9,292.0 L 362.6,292.2 L 362.3,292.5 L 362.1,292.7 L 361.9,292.9 L 361.7,293.1 L 361.5,293.3 L 361.3,293.4 L 361.1,293.6 L 360.9,293.7 L 360.8,293.8 L 360.7,293.9 L 360.6,293.9 L 360.5,294.0 L 360.4,294.0 L 360.3,294.1 L 360.2,294.1 L 360.2,294.1 L 360.2,294.1 L 360.1,294.2 L 360.1,294.2 L 360.1,294.2 L 360.1,294.2 L 360.1,294.2 L 360.1,294.2 L 360.1,294.2 L 360.1,294.2 L 360.1,294.2 L 360.1,294.2 L 360.2,294.2 L 360.2,294.2 L 360.2,294.2 L 360.2,294.2 L 360.2,294.2 L 360.1,294.2 L 360.1,294.2 L 360.1,294.2 L 360.0,294.2 L 360.0,294.2 L 359.9,294.1 L 359.9,294.1 L 359.8,294.1 L 359.7,294.1 L 359.6,294.1 L 359.4,294.1 L 359.3,294.1 L 359.1,294.0 L 359.0,294.0 L 358.8,293.9 L 358.6,293.9 L 358.4,293.8 L 358.1,293.8 L 357.9,293.7 L 357.6,293.6 L 357.4,293.5 L 357.1,293.4 L 356.8,293.3 L 356.5,293.1 L 356.1,293.0 L 355.8,292.8 L 355.4,292.7 L 355.1,292.5 L 354.7,292.3 L 354.3,292.1 L 353.9,291.9 L 353.5,291.7 L 353.1,291.4 L 352.7,291.2 L 352.2,290.9 L 351.8,290.6 L 351.3,290.3 L 350.9,290.0 L 350.4,289.7 L 349.9,289.4 L 349.4,289.0 L 348.9,288.7 L 348.4,288.3 L 347.9,287.9 L 347.4,287.5 L 346.9,287.1 L 346.3,286.7 L 345.8,286.3 L 345.3,285.8 L 344.7,285.4 L 344.2,284.9 L 343.6,284.4 L 343.1,283.9 L 342.5,283.4 L 342.0,282.9 L 341.4,282.4 L 340.8,281.8 L 340.2,281.3 L 339.7,280.7 L 339.1,280.1 L 338.5,279.5 L 337.9,278.9 L 337.3,278.3 L 336.8,277.7 L 336.2,277.1 L 335.6,276.5 L 335.0,275.8 L 334.4,275.2 L 333.8,274.5 L 333.2,273.8 L 332.6,273.1 L 332.0,272.4 L 331.4,271.7 L 330.8,271.0 L 330.2,270.3 L 329.6,269.6 L 329.0,268.9 L 328.3,268.1 L 327.7,267.4 L 327.1,266.6 L 326.5,265.8 L 325.9,265.1 L 325.3,264.3 L 324.7,263.5 L 324.1,262.7 L 323.4,261.9 L 322.8,261.1 L 322.2,260.3 L 321.6,259.4 L 321.0,258.6 L 320.4,257.8 L 319.7,256.9 L 319.1,256.1 L 318.5,255.2 L 317.9,254.4 L 317.2,253.5 L 316.6,252.6 L 316.0,251.7 L 315.4,250.9 L 314.7,250.0 L 314.1,249.1 L 313.5,248.2 L 312.9,247.3 L 312.2,246.4 L 311.6,245.4 L 311.0,244.5 L 310.3,243.6 L 309.7,242.7 L 309.0,241.7 L 308.4,240.8 L 307.8,239.8 L 307.1,238.9 L 306.5,237.9 L 305.8,237.0 L 305.2,236.0 L 304.5,235.0 L 303.9,234.1 L 303.2,233.1 L 302.6,232.1 L 301.9,231.1 L 301.3,230.1 L 300.6,229.2 L 299.9,228.2 L 299.3,227.2 L 298.6,226.2 L 297.9,225.1 L 297.3,224.1 L 296.6,223.1 L 295.9,222.1 L 295.2,221.1 L 294.5,220.1 L 293.8,219.0 L 293.1,218.0 L 292.5,217.0 L 291.8,215.9 L 291.1,214.9 L 290.3,213.8 L 289.6,212.8 L 288.9,211.8 L 288.2,210.7 L 287.5,209.6 L 286.8,208.6 L 286.0,207.5 L 285.3,206.5 L 284.6,205.4 L 283.8,204.3 L 283.1,203.3 L 282.3,202.2 L 281.6,201.1 L 280.8,200.0 L 280.0,199.0 L 279.3,197.9 L 278.5,196.8 L 277.7,195.7 L 276.9,194.6 L 276.1,193.5 L 275.3,192.5 L 274.5,191.4 L 273.7,190.3 L 272.9,189.2 L 272.0,188.1 L 271.2,187.0 L 270.4,185.9 L 269.5,184.8 L 268.7,183.7 L 267.8,182.6 L 266.9,181.5 L 266.0,180.4 L 265.1,179.3 L 264.3,178.2 L 263.3,177.1 L 262.4,176.0 L 261.5,174.9 L 260.6,173.7 L 259.6,172.6 L 258.7,171.5 L 257.7,170.4 L 256.8,169.3 L 255.8,168.2 L 254.8,167.1 L 253.8,166.0 L 252.8,164.9 L 251.7,163.8 L 250.7,162.7 L 249.7,161.6 L 248.6,160.5 L 247.5,159.4 L 246.4,158.3 L 245.3,157.2 L 244.2,156.2 L 243.1,155.1 L 242.0,154.0 L 240.8,152.9 L 239.6,151.8 L 238.5,150.8 L 237.3,149.7 L 236.1,148.6 L 234.8,147.6 L 233.6,146.5 L 232.3,145.5 L 231.0,144.4 L 229.8,143.4 L 228.4,142.4 L 227.1,141.3 L 225.8,140.3 L 224.4,139.3 L 223.0,138.3 L 221.6,137.3 L 220.2,136.3 L 218.7,135.4 L 217.3,134.4 L 215.8,133.5 L 214.3,132.5 L 212.7,131.6 L 211.2,130.7 L 209.6,129.8 L 208.0,128.9 L 206.4,128.0 L 204.8,127.1 L 203.1,126.3 L 201.4,125.5 L 199.7,124.7 L 197.9,123.9 L 196.2,123.1 L 194.4,122.4 L 192.6,121.7 L 190.7,121.0 L 188.8,120.3 L 187.0,119.6 L 185.0,119.0 L 183.1,118.4 L 181.1,117.9 L 179.1,117.3 L 177.1,116.8 L 175.1,116.4 L 173.0,115.9 L 170.9,115.5 L 168.8,115.2 L 166.6,114.9 L 164.5,114.6 L 162.3,114.4 L 160.1,114.2 L 157.8,114.0 L 155.6,113.9 L 153.3,113.9 L 151.1,113.8 L 148.8,113.9 L 146.5,114.0 L 144.1,114.1 L 141.8,114.3 L 139.5,114.6 L 137.1,114.9 L 134.8,115.3 L 132.4,115.7 L 130.0,116.2 L 127.7,116.7 L 125.3,117.3 L 123.0,117.9 L 120.6,118.7 L 118.3,119.4 L 115.9,120.3 L 113.6,121.1 L 111.3,122.1 L 109.0,123.1 L 106.7,124.1 L 104.5,125.3 L 102.2,126.4 L 100.0,127.7 L 97.8,128.9 L 95.7,130.3 L 93.5,131.7 L 91.4,133.1 L 89.3,134.6 L 87.3,136.2 L 85.2,137.8 L 83.3,139.4 L 81.3,141.1 L 79.4,142.8 L 77.5,144.6 L 75.6,146.4 L 73.8,148.3 L 72.0,150.2 L 70.3,152.2 L 68.6,154.2 L 66.9,156.2 L 65.3,158.3 L 63.7,160.4 L 62.1,162.5 L 60.6,164.7 L 59.1,166.9 L 57.7,169.2 L 56.3,171.5 L 54.9,173.8 L 53.6,176.1 L 52.4,178.5 L 51.1,180.9 L 49.9,183.3 L 48.8,185.8 L 47.7,188.3 L 46.6,190.8 L 45.6,193.3 L 44.6,195.9 L 43.7,198.4 L 42.8,201.0 L 41.9,203.7 L 41.1,206.3 L 40.4,208.9 L 39.6,211.6 L 39.0,214.3 L 38.3,217.0 L 37.7,219.7 L 37.2,222.5 L 36.7,225.2 L 36.2,228.0 L 35.8,230.8 L 35.4,233.5 L 35.1,236.3 L 34.8,239.1 L 34.6,241.9 L 34.4,244.7 L 34.2,247.6 L 34.1,250.4 L 34.0,253.2 L 34.0,256.0 L 34.0,258.8 L 34.1,261.6 L 34.2,264.5 L 34.4,267.3 L 34.6,270.1 L 34.8,272.9 L 35.1,275.7 L 35.4,278.5 L 35.8,281.3 L 36.2,284.0 L 36.7,286.8 L 37.2,289.5 L 37.7,292.3 L 38.3,295.0 L 39.0,297.7 L 39.6,300.4 L 40.4,303.1 L 41.1,305.7 L 41.9,308.4 L 42.8,311.0 L 43.7,313.6 L 44.6,316.2 L 45.6,318.7 L 46.6,321.2 L 47.7,323.7 L 48.8,326.2 L 50.0,328.7 L 51.1,331.1 L 52.4,333.5 L 53.6,335.9 L 55.0,338.2 L 56.3,340.5 L 57.7,342.8 L 59.1,345.1 L 60.6,347.3 L 62.1,349.5 L 63.7,351.6 L 65.3,353.7 L 66.9,355.8 L 68.6,357.8 L 70.3,359.8 L 72.0,361.8 L 73.8,363.7 L 75.6,365.6 L 77.5,367.4 L 79.4,369.2 L 81.3,370.9 L 83.3,372.6 L 85.3,374.2 L 87.3,375.8 L 89.3,377.4 L 91.4,378.9 L 93.5,380.3 L 95.7,381.7 L 97.8,383.1 L 100.0,384.3 L 102.3,385.6 L 104.5,386.7 L 106.8,387.9 L 109.0,388.9 L 111.3,389.9 L 113.6,390.9 L 116.0,391.7 L 118.3,392.6 L 120.6,393.3 L 123.0,394.1 L 125.3,394.7 L 127.7,395.3 L 130.1,395.8 L 132.4,396.3 L 134.8,396.7 L 137.1,397.1 L 139.5,397.4 L 141.8,397.7 L 144.1,397.8 L 146.5,398.0 L 148.8,398.1 L 151.1,398.1 L 153.3,398.1 L 155.6,398.1 L 157.9,398.0 L 160.1,397.8 L 162.3,397.6 L 164.5,397.4 L 166.6,397.1 L 168.8,396.8 L 170.9,396.4 L 173.0,396.0 L 175.1,395.6 L 177.1,395.1 L 179.1,394.6 L 181.1,394.1 L 183.1,393.5 L 185.0,392.9 L 186.9,392.3 L 188.8,391.6 L 190.7,390.9 L 192.5,390.2 L 194.3,389.5 L 196.1,388.8 L 197.9,388.0 L 199.6,387.2 L 201.3,386.4 L 203.0,385.6 L 204.7,384.7 L 206.3,383.9 L 207.9,383.0 L 209.5,382.1 L 211.1,381.2 L 212.6,380.2 L 214.2,379.3 L 215.7,378.3 L 217.1,377.4 L 218.6,376.4 L 220.0,375.4 L 221.4,374.4 L 222.8,373.4 L 224.2,372.4 L 225.5,371.4 L 226.9,370.3 L 228.2,369.3 L 229.5,368.2 L 230.7,367.2 L 232.0,366.1 L 233.2,365.0 L 234.4,364.0 L 235.6,362.9 L 236.8,361.8 L 238.0,360.7 L 239.1,359.6 L 240.3,358.5 L 241.4,357.4 L 242.4,356.2 L 243.5,355.1 L 244.6,354.0 L 245.6,352.8 L 246.6,351.7 L 247.6,350.5 L 248.6,349.4 L 249.6,348.2 L 250.5,347.1 L 251.5,345.9 L 252.4,344.7 L 253.3,343.5 L 254.2,342.3 L 255.0,341.1 L 255.9,339.9 L 256.7,338.7 L 257.5,337.5 L 258.3,336.3 L 259.0,335.1 L 259.8,333.8 L 260.5,332.6 L 261.2,331.3 L 261.9,330.1 L 262.5,328.8 L 263.1,327.5 L 263.7,326.2 L 264.3,324.9 L 264.9,323.6 L 265.4,322.3 L 265.9,320.9 L 266.3,319.6 L 266.8,318.2 L 267.2,316.9 L 267.5,315.5 L 267.9,314.0 L 268.2,312.6 L 268.4,311.2 L 268.6,309.7 L 268.8,308.2 L 269.0,306.7 L 269.1,305.2 L 269.1,303.7 L 269.1,302.1 L 269.1,300.5 L 269.0,298.9 L 268.9,297.3 L 268.8,295.6 L 268.5,293.9 L 268.3,292.2 L 268.0,290.5 L 267.6,288.8 L 267.2,287.0 L 266.8,285.2 L 266.3,283.4 L 265.8,281.5 L 265.2,279.7 L 264.6,277.8 L 264.0,275.9 L 263.3,273.9 L 262.5,272.0 L 261.8,270.0 L 261.0,268.0 L 260.2,266.1 L 259.4,264.1 L 258.6,262.1 L 257.7,260.0 L 256.9,258.0 L 256.0,256.0 L 255.1,254.0 L 254.3,252.0 L 253.4,249.9 L 252.6,247.9 L 251.8,245.9 L 251.0,244.0 L 250.2,242.0 L 249.5,240.0 L 248.7,238.1 L 248.0,236.1 L 247.4,234.2 L 246.8,232.3 L 246.2,230.5 L 245.7,228.6 L 245.2,226.8 L 244.8,225.0 L 244.4,223.2 L 244.0,221.5 L 243.7,219.8 L 243.5,218.1 L 243.2,216.4 L 243.1,214.7 L 243.0,213.1 L 242.9,211.5 L 242.9,209.9 L 242.9,208.3 L 242.9,206.8 L 243.0,205.3 L 243.2,203.8 L 243.4,202.3 L 243.6,200.8 L 243.8,199.4 L 244.1,198.0 L 244.5,196.5 L 244.8,195.1 L 245.2,193.8 L 245.7,192.4 L 246.1,191.0 L 246.6,189.7 L 247.1,188.4 L 247.7,187.1 L 248.3,185.8 L 248.9,184.5 L 249.5,183.2 L 250.1,181.9 L 250.8,180.7 L 251.5,179.4 L 252.2,178.2 L 253.0,176.9 L 253.7,175.7 L 254.5,174.5 L 255.3,173.3 L 256.1,172.1 L 257.0,170.9 L 257.8,169.7 L 258.7,168.5 L 259.6,167.3 L 260.5,166.1 L 261.5,164.9 L 262.4,163.8 L 263.4,162.6 L 264.4,161.5 L 265.4,160.3 L 266.4,159.2 L 267.4,158.0 L 268.5,156.9 L 269.6,155.8 L 270.6,154.6 L 271.8,153.5 L 272.9,152.4 L 274.0,151.3 L 275.2,150.2 L 276.4,149.1 L 277.6,148.0 L 278.8,146.9 L 280.0,145.9 L 281.3,144.8 L 282.5,143.8 L 283.8,142.7 L 285.1,141.7 L 286.5,140.6 L 287.8,139.6 L 289.2,138.6 L 290.6,137.6 L 292.0,136.6 L 293.4,135.6 L 294.9,134.6 L 296.3,133.7 L 297.8,132.7 L 299.4,131.8 L 300.9,130.8 L 302.5,129.9 L 304.1,129.0 L 305.7,128.1 L 307.3,127.3 L 309.0,126.4 L 310.7,125.6 L 312.4,124.8 L 314.1,124.0 L 315.9,123.2 L 317.7,122.5 L 319.5,121.7 L 321.3,121.0 L 323.2,120.4 L 325.1,119.7 L 327.0,119.1 L 328.9,118.5 L 330.9,117.9 L 332.9,117.4 L 334.9,116.9 L 337.0,116.4 L 339.0,116.0 L 341.1,115.6 L 343.2,115.2 L 345.4,114.9 L 347.5,114.6 L 349.7,114.4 L 351.9,114.2 L 354.2,114.0 L 356.4,113.9 L 358.7,113.9 L 360.9,113.9 L 363.2,113.9 L 365.5,114.0 L 367.9,114.2 L 370.2,114.4 L 372.5,114.6 L 374.9,114.9 L 377.2,115.3 L 379.6,115.7 L 382.0,116.2 L 384.3,116.7 L 386.7,117.3 L 389.0,118.0 L 391.4,118.7 L 393.7,119.4 L 396.1,120.3 L 398.4,121.1 L 400.7,122.1 L 403.0,123.1 L 405.3,124.2 L 407.5,125.3 L 409.8,126.4 L 412.0,127.7 L 414.2,129.0 L 416.3,130.3 L 418.5,131.7 L 420.6,133.1 L 422.7,134.6 L 424.7,136.2 L 426.8,137.8 L 428.7,139.4 L 430.7,141.1 L 432.6,142.8 L 434.5,144.6 L 436.4,146.5 L 438.2,148.3 L 440.0,150.2 L 441.7,152.2 L 443.4,154.2 L 445.1,156.2 L 446.7,158.3 L 448.3,160.4 L 449.9,162.5 L 451.4,164.7 L 452.9,166.9 L 454.3,169.2 L 455.7,171.5 L 457.1,173.8 L 458.4,176.1 L 459.6,178.5 L 460.9,180.9 L 462.1,183.3 L 463.2,185.8 L 464.3,188.3 L 465.4,190.8 L 466.4,193.3 L 467.4,195.9 L 468.3,198.4 L 469.2,201.0 L 470.1,203.7 L 470.9,206.3 L 471.6,208.9 L 472.4,211.6 L 473.0,214.3 L 473.7,217.0 L 474.3,219.7 L 474.8,222.5 L 475.3,225.2 L 475.8,228.0 L 476.2,230.8 L 476.6,233.5 L 476.9,236.3 L 477.2,239.1 L 477.4,241.9 L 477.6,244.7 L 477.8,247.6 L 477.9,250.4 L 478.0,253.2 L 478.0,256.0 L 478.0,258.8 L 477.9,261.6 L 477.8,264.5 L 477.6,267.3 L 477.4,270.1 L 477.2,272.9 L 476.9,275.7 L 476.6,278.5 L 476.2,281.3 L 475.8,284.0 L 475.3,286.8 L 474.8,289.5 L 474.3,292.3 L 473.7,295.0 L 473.0,297.7 L 472.4,300.4 L 471.6,303.1 L 470.9,305.7 L 470.1,308.4 L 469.2,311.0 L 468.3,313.6 L 467.4,316.2 L 466.4,318.7 L 465.4,321.2 L 464.3,323.7 L 463.2,326.2 L 462.1,328.7 L 460.9,331.1 L 459.6,333.5 L 458.4,335.9 L 457.0,338.2 L 455.7,340.5 L 454.3,342.8 L 452.9,345.1 L 451.4,347.3 L 449.9,349.5 L 448.3,351.6 L 446.7,353.7 L 445.1,355.8 L 443.4,357.8 L 441.7,359.8 L 440.0,361.8 L 438.2,363.7 L 436.4,365.6 L 434.5,367.4 L 432.6,369.2 L 430.7,370.9 L 428.7,372.6 L 426.7,374.2 L 424.7,375.8 L 422.7,377.4 L 420.6,378.9 L 418.5,380.3 L 416.3,381.7 L 414.2,383.1 L 412.0,384.3 L 409.7,385.6 L 407.5,386.7 L 405.2,387.9 L 403.0,388.9 L 400.7,389.9 L 398.4,390.9 L 396.0,391.8 L 393.7,392.6 L 391.4,393.4 L 389.0,394.1 L 386.7,394.7 L 384.3,395.3 L 381.9,395.8 L 379.6,396.3 L 377.2,396.7 L 374.9,397.1 L 372.5,397.4 L 370.2,397.7 L 367.9,397.9 L 365.5,398.0 L 363.2,398.1 L 360.9,398.2 L 358.7,398.1 L 356.4,398.1 L 354.1,398.0 L 351.9,397.8 L 349.7,397.6 L 347.5,397.4 L 345.4,397.1 L 343.2,396.8 L 341.1,396.5 L 339.0,396.1 L 336.9,395.6 L 334.9,395.2 L 332.9,394.7 L 330.9,394.1 L 328.9,393.6 L 327.0,393.0 L 325.0,392.4 L 323.1,391.7 L 321.3,391.0 L 319.4,390.3 L 317.6,389.6 L 315.8,388.9 L 314.1,388.1 L 312.3,387.3 L 310.6,386.5 L 308.9,385.7 L 307.2,384.8 L 305.6,384.0 L 304.0,383.1 L 302.4,382.2 L 300.8,381.3 L 299.3,380.4 L 297.7,379.5 L 296.2,378.5 L 294.7,377.6 L 293.3,376.6 L 291.8,375.7 L 290.4,374.7 L 289.0,373.7 L 287.6,372.7 L 286.2,371.7 L 284.9,370.7 L 283.6,369.6 L 282.2,368.6 L 280.9,367.6 L 279.7,366.5 L 278.4,365.5 L 277.2,364.4 L 275.9,363.4 L 274.7,362.3 L 273.5,361.2 L 272.3,360.2 L 271.2,359.1 L 270.0,358.0 L 268.9,356.9 L 267.8,355.8 L 266.7,354.8 L 265.6,353.7 L 264.5,352.6 L 263.4,351.5 L 262.3,350.4 L 261.3,349.3 L 260.3,348.2 L 259.2,347.1 L 258.2,346.0 L 257.2,344.9 L 256.2,343.8 L 255.2,342.7 L 254.3,341.6 L 253.3,340.5 L 252.4,339.4 L 251.4,338.2 L 250.5,337.1 L 249.6,336.0 L 248.7,334.9 L 247.7,333.8 L 246.8,332.7 L 246.0,331.6 L 245.1,330.5 L 244.2,329.4 L 243.3,328.3 L 242.5,327.2 L 241.6,326.1 L 240.8,325.0 L 240.0,323.9 L 239.1,322.8 L 238.3,321.7 L 237.5,320.6 L 236.7,319.5 L 235.9,318.5 L 235.1,317.4 L 234.3,316.3 L 233.5,315.2 L 232.7,314.1 L 232.0,313.0 L 231.2,312.0 L 230.4,310.9 L 229.7,309.8 L 228.9,308.7 L 228.2,307.7 L 227.4,306.6 L 226.7,305.5 L 226.0,304.5 L 225.2,303.4 L 224.5,302.4 L 223.8,301.3 L 223.1,300.2 L 222.4,299.2 L 221.7,298.2 L 220.9,297.1 L 220.2,296.1 L 219.5,295.0 L 218.9,294.0 L 218.2,293.0 L 217.5,291.9 L 216.8,290.9 L 216.1,289.9 L 215.4,288.9 L 214.7,287.9 L 214.1,286.9 L 213.4,285.8 L 212.7,284.8 L 212.1,283.8 L 211.4,282.8 L 210.7,281.9 L 210.1,280.9 L 209.4,279.9 L 208.8,278.9 L 208.1,277.9 L 207.5,277.0 L 206.8,276.0 L 206.2,275.0 L 205.5,274.1 L 204.9,273.1 L 204.2,272.2 L 203.6,271.2 L 203.0,270.3 L 202.3,269.3 L 201.7,268.4 L 201.0,267.5 L 200.4,266.6 L 199.8,265.6 L 199.1,264.7 L 198.5,263.8 L 197.9,262.9 L 197.3,262.0 L 196.6,261.1 L 196.0,260.3 L 195.4,259.4 L 194.8,258.5 L 194.1,257.6 L 193.5,256.8 L 192.9,255.9 L 192.3,255.1 L 191.6,254.2 L 191.0,253.4 L 190.4,252.6 L 189.8,251.7 L 189.2,250.9 L 188.6,250.1 L 187.9,249.3 L 187.3,248.5 L 186.7,247.7 L 186.1,246.9 L 185.5,246.2 L 184.9,245.4 L 184.3,244.6 L 183.7,243.9 L 183.0,243.2 L 182.4,242.4 L 181.8,241.7 L 181.2,241.0 L 180.6,240.3 L 180.0,239.6 L 179.4,238.9 L 178.8,238.2 L 178.2,237.5 L 177.6,236.8 L 177.0,236.2 L 176.4,235.5 L 175.8,234.9 L 175.2,234.3 L 174.7,233.7 L 174.1,233.1 L 173.5,232.5 L 172.9,231.9 L 172.3,231.3 L 171.8,230.7 L 171.2,230.2 L 170.6,229.7 L 170.0,229.1 L 169.5,228.6 L 168.9,228.1 L 168.4,227.6 L 167.8,227.1 L 167.3,226.6 L 166.7,226.2 L 166.2,225.7 L 165.7,225.3 L 165.1,224.9 L 164.6,224.5 L 164.1,224.1 L 163.6,223.7 L 163.1,223.3 L 162.6,223.0 L 162.1,222.6 L 161.6,222.3 L 161.2,222.0 L 160.7,221.7 L 160.2,221.4 L 159.8,221.1 L 159.3,220.8 L 158.9,220.6 L 158.5,220.3 L 158.1,220.1 L 157.7,219.9 L 157.3,219.7 L 156.9,219.5 L 156.6,219.3 L 156.2,219.2 L 155.9,219.0 L 155.6,218.9 L 155.2,218.7 L 154.9,218.6 L 154.7,218.5 L 154.4,218.4 L 154.1,218.3 L 153.9,218.3 L 153.7,218.2 L 153.4,218.1 L 153.2,218.1 L 153.1,218.0 L 152.9,218.0 L 152.7,217.9 L 152.6,217.9 L 152.5,217.9 L 152.3,217.9 L 152.2,217.9 L 152.2,217.9 L 152.1,217.9 L 152.0,217.8 L 152.0,217.8 L 151.9,217.8 L 151.9,217.8 L 151.9,217.8 L 151.9,217.8 L 151.8,217.8 L 151.8,217.8 L 151.8,217.8 L 151.9,217.8 L 151.9,217.8 L 151.9,217.8 L 151.9,217.8 L 151.9,217.8 L 151.9,217.8 L 151.9,217.8 L 151.9,217.8 L 151.9,217.8 L 151.9,217.8 L 151.9,217.8 L 151.9,217.9 L 151.8,217.9 L 151.8,217.9 L 151.7,217.9 L 151.6,218.0 L 151.5,218.0 L 151.4,218.1 L 151.3,218.1 L 151.2,218.2 L 151.1,218.3 L 150.9,218.4 L 150.7,218.6 L 150.6,218.7 L 150.4,218.9 L 150.1,219.1 L 149.9,219.3 L 149.7,219.5 L 149.4,219.7 L 149.1,220.0 L 148.9,220.3 L 148.6,220.6 L 148.3,221.0 L 147.9,221.4 L 147.6,221.8 L 147.3,222.2 L 147.0,222.7 L 146.6,223.2 L 146.3,223.7 L 145.9,224.3 L 145.6,224.8 L 145.2,225.5 L 144.8,226.1 L 144.5,226.8 L 144.1,227.5 L 143.8,228.2 L 143.4,228.9 L 143.1,229.7 L 142.7,230.5 L 142.4,231.4 L 142.1,232.2 L 141.7,233.1 L 141.4,234.0 L 141.1,235.0 L 140.8,236.0 L 140.5,236.9 L 140.3,237.9 L 140.0,239.0 L 139.8,240.0 L 139.5,241.1 L 139.3,242.2 L 139.1,243.3 L 138.9,244.4 L 138.7,245.5 L 138.6,246.6 L 138.5,247.8 L 138.3,248.9 L 138.2,250.1 L 138.1,251.3 L 138.1,252.4 L 138.0,253.6 L 138.0,254.8 L 138.0,256.0 L 138.0,257.2 L 138.0,258.4 L 138.1,259.5 L 138.1,260.7 L 138.2,261.9 L 138.3,263.1 L 138.5,264.2 L 138.6,265.4 L 138.7,266.5 L 138.9,267.6 L 139.1,268.7 L 139.3,269.8 L 139.5,270.9 L 139.7,272.0 L 140.0,273.0 L 140.3,274.0 L 140.5,275.1 L 140.8,276.0 L 141.1,277.0 L 141.4,277.9 L 141.7,278.9 L 142.0,279.7 L 142.4,280.6 L 142.7,281.4 L 143.1,282.3 L 143.4,283.0 L 143.8,283.8 L 144.1,284.5 L 144.5,285.2 L 144.8,285.9 L 145.2,286.5 L 145.6,287.2 L 145.9,287.7 L 146.3,288.3 L 146.6,288.8 L 147.0,289.3 L 147.3,289.8 L 147.6,290.2 L 147.9,290.6 L 148.3,291.0 L 148.6,291.3 L 148.8,291.7 L 149.1,292.0 L 149.4,292.3 L 149.7,292.5 L 149.9,292.7 L 150.1,292.9 L 150.3,293.1 L 150.5,293.3 L 150.7,293.4 L 150.9,293.6 L 151.0,293.7 L 151.2,293.8 L 151.3,293.9 L 151.4,293.9 L 151.5,294.0 L 151.6,294.0 L 151.7,294.1 L 151.7,294.1 L 151.8,294.1 L 151.8,294.1 L 151.9,294.2 L 151.9,294.2 L 151.9,294.2 L 151.9,294.2 L 151.9,294.2 L 151.9,294.2 L 151.9,294.2 L 151.9,294.2 L 151.9,294.2 L 151.8,294.2 L 151.8,294.2 L 151.8,294.2 L 151.8,294.2 L 151.8,294.2 L 151.8,294.2 L 151.9,294.2 L 151.9,294.2 L 151.9,294.2 L 152.0,294.2 L 152.0,294.2 L 152.1,294.2 L 152.1,294.2 L 152.2,294.2 L 152.3,294.2 L 152.5,294.1 L 152.6,294.1 L 152.7,294.1 L 152.9,294.1 L 153.1,294.0 L 153.2,294.0 L 153.5,293.9 L 153.7,293.9 L 153.9,293.8 L 154.1,293.7 L 154.4,293.7 L 154.7,293.6 L 155.0,293.5 L 155.3,293.4 L 155.6,293.2 L 155.9,293.1 L 156.3,292.9 L 156.6,292.8 L 157.0,292.6 L 157.4,292.4 L 157.8,292.2 L 158.2,292.0 L 158.6,291.8 L 159.0,291.6 L 159.4,291.3 L 159.9,291.1 L 160.3,290.8 L 160.8,290.5 L 161.3,290.3 L 161.8,289.9 L 162.3,289.6 L 162.8,289.3 L 163.3,289.0 L 163.8,288.6 L 164.3,288.2 L 164.9,287.9 L 165.4,287.5 L 166.0,287.1 L 166.5,286.7 L 167.1,286.2 L 167.7,285.8 L 168.2,285.4 L 168.8,284.9 L 169.4,284.4 L 170.0,284.0 L 170.6,283.5 L 171.2,283.0 L 171.8,282.5 L 172.5,282.0 L 173.1,281.5 L 173.7,280.9 L 174.4,280.4 L 175.0,279.9 L 175.7,279.3 L 176.4,278.8 L 177.0,278.2 L 177.7,277.6 L 178.4,277.1 L 179.1,276.5 L 179.8,275.9 L 180.5,275.3 L 181.3,274.8 L 182.0,274.2 L 182.8,273.6 L 183.5,273.0 L 184.3,272.4 L 185.1,271.8 L 185.9,271.2 L 186.7,270.6 L 187.5,270.0 L 188.4,269.4 L 189.3,268.8 L 190.1,268.2 L 191.0,267.7 L 192.0,267.1 L 192.9,266.5 L 193.9,266.0 L 194.9,265.4 L 195.9,264.9 L 196.9,264.3 L 198.0,263.8 L 199.1,263.3 L 200.2,262.8 L 201.4,262.3 L 202.6,261.8 L 203.8,261.3 L 205.0,260.9 L 206.3,260.5 L 207.7,260.0 L 209.0,259.6 L 210.5,259.3 L 211.9,258.9 L 213.4,258.6 L 214.9,258.2 L 216.5,257.9 L 218.2,257.7 L 219.8,257.4 L 221.5,257.2 L 223.3,257.0 L 225.1,256.8 L 226.9,256.6 L 228.8,256.5 L 230.7,256.3 L 232.7,256.2 L 234.7,256.2 L 236.7,256.1 L 238.8,256.0 L 240.8,256.0 L 243.0,256.0 L 245.1,256.0 L 247.3,256.0 L 249.4,256.0 L 251.6,256.0 L 253.8,256.0 L 256.0,256.0 L 258.2,256.0 L 260.4,256.0 L 262.6,256.0 L 264.7,256.0 L 266.9,256.0 L 269.0,256.0 L 271.2,256.0 L 273.2,256.0 L 275.3,255.9 L 277.3,255.8 L 279.3,255.8 L 281.3,255.7 L 283.2,255.5 L 285.1,255.4 L 286.9,255.2 L 288.7,255.0 L 290.5,254.8 L 292.2,254.6 L 293.8,254.3 L 295.5,254.1 L 297.1,253.8 L 298.6,253.4 L 300.1,253.1 L 301.5,252.7 L 302.9,252.4 L 304.3,252.0 L 305.7,251.6 L 307.0,251.1 L 308.2,250.7 L 309.4,250.2 L 310.6,249.7 L 311.8,249.2 L 312.9,248.7 L 314.0,248.2 L 315.1,247.7 L 316.1,247.1 L 317.1,246.6 L 318.1,246.0 L 319.1,245.5 L 320.0,244.9 L 321.0,244.3 L 321.9,243.8 L 322.7,243.2 L 323.6,242.6 L 324.5,242.0 L 325.3,241.4 L 326.1,240.8 L 326.9,240.2 L 327.7,239.6 L 328.5,239.0 L 329.2,238.4 L 330.0,237.8 L 330.7,237.2 L 331.5,236.7 L 332.2,236.1 L 332.9,235.5 L 333.6,234.9 L 334.3,234.4 L 335.0,233.8 L 335.6,233.2 L 336.3,232.7 L 337.0,232.1 L 337.6,231.6 L 338.3,231.1 L 338.9,230.5 L 339.5,230.0 L 340.2,229.5 L 340.8,229.0 L 341.4,228.5 L 342.0,228.0 L 342.6,227.6 L 343.2,227.1 L 343.8,226.6 L 344.3,226.2 L 344.9,225.8 L 345.5,225.3 L 346.0,224.9 L 346.6,224.5 L 347.1,224.1 L 347.7,223.8 L 348.2,223.4 L 348.7,223.0 L 349.2,222.7 L 349.7,222.4 L 350.2,222.1 L 350.7,221.8 L 351.2,221.5 L 351.6,221.2 L 352.1,220.9 L 352.5,220.7 L 353.0,220.4 L 353.4,220.2 L 353.8,220.0 L 354.2,219.8 L 354.6,219.6 L 355.0,219.4 L 355.4,219.2 L 355.7,219.1 L 356.1,218.9 L 356.4,218.8 L 356.7,218.7 L 357.0,218.5 L 357.3,218.4 L 357.6,218.3 L 357.8,218.3 L 358.1,218.2 L 358.3,218.1 L 358.5,218.1 L 358.7,218.0 L 358.9,218.0 L 359.1,217.9 L 359.3,217.9 L 359.4,217.9 L 359.5,217.9 L 359.6,217.8 L 359.7,217.8 L 359.8,217.8 L 359.9,217.8 L 360.0,217.8 L 360.0,217.8 L 360.1,217.8 L 360.1,217.8 L 360.1,217.8 L 360.1,217.8 L 360.2,217.8 L 360.2,217.8 L 360.2,217.8 L 360.1,217.8 L 360.1,217.8 L 360.1,217.8 L 360.1,217.8 L 360.1,217.8 L 360.1,217.8 L 360.1,217.8 L 360.1,217.8 L 360.1,217.8 L 360.1,217.8 L 360.1,217.8 L 360.2,217.8 L 360.2,217.9 L 360.2,217.9 L 360.3,217.9 L 360.4,218.0 L 360.5,218.0 L 360.6,218.1 L 360.7,218.1 L 360.8,218.2 L 360.9,218.3 L 361.1,218.4 L 361.3,218.6 L 361.5,218.7 L 361.7,218.9 L 361.9,219.0 L 362.1,219.3 L 362.3,219.5 L 362.6,219.7 L 362.9,220.0 L 363.1,220.3 L 363.4,220.6 L 363.7,221.0 L 364.1,221.4 L 364.4,221.8 L 364.7,222.2 L 365.0,222.7 L 365.4,223.2 L 365.7,223.7 L 366.1,224.3 L 366.4,224.8 L 366.8,225.5 L 367.2,226.1 L 367.5,226.8 L 367.9,227.5 L 368.2,228.2 L 368.6,228.9 L 368.9,229.7 L 369.3,230.5 L 369.6,231.4 L 369.9,232.2 L 370.3,233.1 L 370.6,234.0 L 370.9,235.0 L 371.2,236.0 L 371.5,236.9 L 371.7,237.9 L 372.0,239.0 L 372.2,240.0 L 372.5,241.1 L 372.7,242.2 L 372.9,243.3 L 373.1,244.4 L 373.3,245.5 L 373.4,246.6 L 373.5,247.8 L 373.7,248.9 L 373.8,250.1 L 373.9,251.3 L 373.9,252.4 L 374.0,253.6 L 374.0,254.8 Z" fill="none" stroke="#ffffff" stroke-width="40" stroke-linejoin="round"/><path d="M 367.3,257.2 L 366.8,256.9 L 366.4,256.5 L 366.0,256.1 L 365.5,255.6 L 365.1,255.2 L 364.6,254.7 L 364.1,254.2 L 363.6,253.7 L 363.1,253.2 L 362.6,252.7 L 362.1,252.1 L 361.6,251.5 L 361.0,250.9 L 360.5,250.3 L 359.9,249.7 L 359.4,249.1 L 358.8,248.4 L 358.2,247.7 L 357.6,247.0 L 357.0,246.3 L 356.4,245.6 L 355.8,244.8 L 355.2,244.1 L 354.6,243.3 L 354.0,242.5 L 353.3,241.7 L 352.7,240.9 L 352.1,240.1 L 351.4,239.2 L 350.8,238.4 L 350.1,237.5 L 349.5,236.6 L 348.8,235.7 L 348.1,234.8 L 347.5,233.9 L 346.8,232.9 L 346.1,232.0 L 345.4,231.0 L 344.7,230.0 L 344.1,229.1 L 343.4,228.1 L 342.7,227.1 L 341.9,226.0 L 341.2,225.0 L 340.5,224.0 L 339.8,222.9 L 339.1,221.9 L 338.4,220.8 L 337.6,219.7 L 336.9,218.6 L 336.1,217.5 L 335.4,216.4 L 334.6,215.3 L 333.9,214.2 L 333.1,213.0 L 332.3,211.9 L 331.6,210.7 L 330.8,209.5 L 330.0,208.4 L 329.2,207.2 L 328.4,206.0 L 327.6,204.8 L 326.8,203.6 L 326.0,202.4 L 325.2,201.1 L 324.3,199.9 L 323.5,198.6 L 322.7,197.4 L 321.8,196.1 L 321.0,194.9 L 320.1,193.6 L 319.2,192.3 L 318.4,191.0 L 317.5,189.7 L 316.6,188.4 L 315.7,187.1 L 314.7,185.8 L 313.8,184.4 L 312.9,183.1 L 312.0,181.7 L 311.0,180.4 L 310.0,179.0 L 309.1,177.7 L 308.1,176.3 L 307.1,174.9 L 306.1,173.5 L 305.1,172.1 L 304.0,170.7 L 303.0,169.3 L 301.9,167.9 L 300.9,166.5 L 299.8,165.1 L 298.7,163.7 L 297.6,162.2 L 296.5,160.8 L 295.3,159.4 L 294.2,157.9 L 293.0,156.5 L 291.8,155.0 L 290.6,153.5 L 289.4,152.1 L 288.1,150.6 L 286.9,149.1 L 285.6,147.6 L 284.3,146.1 L 283.0,144.7 L 281.7,143.2 L 280.3,141.7 L 278.9,140.2 L 277.5,138.7 L 276.1,137.2 L 274.6,135.7 L 273.2,134.2 L 271.7,132.7 L 270.1,131.1 L 268.6,129.6 L 267.0,128.1 L 265.4,126.6 L 263.8,125.1 L 262.1,123.6 L 144.8,254.8 L 145.2,255.1 L 145.6,255.5 L 146.0,255.9 L 146.5,256.4 L 146.9,256.8 L 147.4,257.3 L 147.9,257.8 L 148.4,258.3 L 148.9,258.8 L 149.4,259.3 L 149.9,259.9 L 150.4,260.5 L 151.0,261.1 L 151.5,261.7 L 152.1,262.3 L 152.6,263.0 L 153.2,263.6 L 153.8,264.3 L 154.4,265.0 L 155.0,265.7 L 155.6,266.4 L 156.2,267.2 L 156.8,267.9 L 157.4,268.7 L 158.0,269.5 L 158.7,270.3 L 159.3,271.1 L 159.9,271.9 L 160.6,272.8 L 161.2,273.6 L 161.9,274.5 L 162.5,275.4 L 163.2,276.3 L 163.9,277.2 L 164.5,278.1 L 165.2,279.1 L 165.9,280.0 L 166.6,281.0 L 167.3,282.0 L 167.9,282.9 L 168.6,283.9 L 169.3,284.9 L 170.1,286.0 L 170.8,287.0 L 171.5,288.0 L 172.2,289.1 L 172.9,290.1 L 173.6,291.2 L 174.4,292.3 L 175.1,293.4 L 175.9,294.5 L 176.6,295.6 L 177.4,296.7 L 178.1,297.8 L 178.9,299.0 L 179.7,300.1 L 180.4,301.3 L 181.2,302.5 L 182.0,303.6 L 182.8,304.8 L 183.6,306.0 L 184.4,307.2 L 185.2,308.4 L 186.0,309.6 L 186.8,310.9 L 187.7,312.1 L 188.5,313.4 L 189.3,314.6 L 190.2,315.9 L 191.0,317.1 L 191.9,318.4 L 192.8,319.7 L 193.6,321.0 L 194.5,322.3 L 195.4,323.6 L 196.3,324.9 L 197.3,326.2 L 198.2,327.6 L 199.1,328.9 L 200.0,330.3 L 201.0,331.6 L 202.0,333.0 L 202.9,334.3 L 203.9,335.7 L 204.9,337.1 L 205.9,338.5 L 206.9,339.9 L 208.0,341.2 L 209.0,342.7 L 210.1,344.1 L 211.1,345.5 L 212.2,346.9 L 213.3,348.3 L 214.4,349.8 L 215.5,351.2 L 216.7,352.6 L 217.8,354.1 L 219.0,355.5 L 220.2,357.0 L 221.4,358.5 L 222.6,359.9 L 223.9,361.4 L 225.1,362.9 L 226.4,364.4 L 227.7,365.8 L 229.0,367.3 L 230.3,368.8 L 231.7,370.3 L 233.1,371.8 L 234.5,373.3 L 235.9,374.8 L 237.3,376.3 L 238.8,377.8 L 240.3,379.3 L 241.8,380.8 L 243.4,382.4 L 245.0,383.9 L 246.6,385.4 L 248.2,386.9 L 249.9,388.4 Z" fill="#202020"/><path d="M 347.4,287.5 L 346.7,287.0 L 346.0,286.4 L 345.3,285.8 L 344.6,285.2 L 343.8,284.6 L 343.1,283.9 L 342.4,283.3 L 341.6,282.6 L 340.9,281.9 L 340.1,281.1 L 339.4,280.4 L 338.6,279.6 L 337.8,278.8 L 337.1,278.0 L 336.3,277.2 L 335.5,276.4 L 334.7,275.5 L 333.9,274.7 L 333.2,273.8 L 332.4,272.9 L 331.6,272.0 L 330.8,271.0 L 330.0,270.1 L 329.2,269.1 L 328.4,268.1 L 327.6,267.2 L 326.8,266.2 L 326.0,265.1 L 325.2,264.1 L 324.4,263.1 L 323.5,262.0 L 322.7,260.9 L 321.9,259.9 L 321.1,258.8 L 320.3,257.7 L 319.5,256.6 L 318.7,255.4 L 317.8,254.3 L 317.0,253.2 L 316.2,252.0 L 315.4,250.9 L 314.5,249.7 L 313.7,248.5 L 312.9,247.3 L 312.1,246.1 L 311.2,244.9 L 310.4,243.7 L 309.5,242.5 L 308.7,241.2 L 307.9,240.0 L 307.0,238.7 L 306.2,237.5 L 305.3,236.2 L 304.5,234.9 L 303.6,233.7 L 302.7,232.4 L 301.9,231.1 L 301.0,229.8 L 300.1,228.5 L 299.3,227.2 L 298.4,225.8 L 297.5,224.5 L 296.6,223.2 L 295.7,221.8 L 294.8,220.5 L 293.9,219.1 L 293.0,217.8 L 292.1,216.4 L 291.2,215.1 L 290.2,213.7 L 289.3,212.3 L 288.4,210.9 L 287.4,209.5 L 286.5,208.1 L 285.5,206.7 L 284.5,205.3 L 283.5,203.9 L 282.6,202.5 L 281.6,201.1 L 280.6,199.7 L 279.5,198.3 L 278.5,196.9 L 277.5,195.4 L 276.4,194.0 L 275.4,192.6 L 274.3,191.1 L 273.3,189.7 L 272.2,188.3 L 271.1,186.8 L 270.0,185.4 L 268.8,183.9 L 267.7,182.5 L 266.6,181.0 L 265.4,179.6 L 264.2,178.1 L 263.0,176.7 L 261.8,175.2 L 260.6,173.8 L 259.3,172.3 L 258.1,170.8 L 256.8,169.4 L 255.5,167.9 L 254.2,166.5 L 252.9,165.0 L 251.5,163.6 L 250.2,162.1 L 248.8,160.7 L 247.4,159.3 L 245.9,157.8 L 244.5,156.4 L 243.0,155.0 L 241.5,153.5 L 240.0,152.1 L 238.4,150.7 L 236.8,149.3 L 235.2,147.9 L 233.6,146.5 L 231.9,145.1 L 230.2,143.8 L 228.5,142.4" fill="none" stroke="#ffffff" stroke-width="40" stroke-linecap="round"/><path d="M 283.5,369.6 L 281.8,368.2 L 280.1,366.8 L 278.4,365.5 L 276.8,364.1 L 275.2,362.7 L 273.6,361.3 L 272.0,359.9 L 270.5,358.5 L 269.0,357.0 L 267.5,355.6 L 266.1,354.2 L 264.6,352.7 L 263.2,351.3 L 261.8,349.9 L 260.5,348.4 L 259.1,347.0 L 257.8,345.5 L 256.5,344.1 L 255.2,342.6 L 253.9,341.2 L 252.7,339.7 L 251.4,338.2 L 250.2,336.8 L 249.0,335.3 L 247.8,333.9 L 246.6,332.4 L 245.4,331.0 L 244.3,329.5 L 243.2,328.1 L 242.0,326.6 L 240.9,325.2 L 239.8,323.7 L 238.7,322.3 L 237.7,320.9 L 236.6,319.4 L 235.6,318.0 L 234.5,316.6 L 233.5,315.1 L 232.5,313.7 L 231.4,312.3 L 230.4,310.9 L 229.4,309.5 L 228.5,308.1 L 227.5,306.6 L 226.5,305.2 L 225.5,303.9 L 224.6,302.5 L 223.6,301.1 L 222.7,299.7 L 221.8,298.3 L 220.8,296.9 L 219.9,295.6 L 219.0,294.2 L 218.1,292.9 L 217.2,291.5 L 216.3,290.2 L 215.4,288.8 L 214.5,287.5 L 213.6,286.2 L 212.7,284.8 L 211.9,283.5 L 211.0,282.2 L 210.1,280.9 L 209.3,279.6 L 208.4,278.3 L 207.5,277.1 L 206.7,275.8 L 205.8,274.5 L 205.0,273.3 L 204.1,272.0 L 203.3,270.8 L 202.5,269.5 L 201.6,268.3 L 200.8,267.1 L 199.9,265.9 L 199.1,264.7 L 198.3,263.5 L 197.5,262.3 L 196.6,261.1 L 195.8,260.0 L 195.0,258.8 L 194.2,257.7 L 193.3,256.6 L 192.5,255.4 L 191.7,254.3 L 190.9,253.2 L 190.1,252.1 L 189.3,251.1 L 188.5,250.0 L 187.6,248.9 L 186.8,247.9 L 186.0,246.9 L 185.2,245.8 L 184.4,244.8 L 183.6,243.9 L 182.8,242.9 L 182.0,241.9 L 181.2,241.0 L 180.4,240.0 L 179.6,239.1 L 178.9,238.2 L 178.1,237.3 L 177.3,236.5 L 176.5,235.6 L 175.7,234.8 L 174.9,234.0 L 174.2,233.2 L 173.4,232.4 L 172.6,231.6 L 171.9,230.9 L 171.1,230.1 L 170.4,229.4 L 169.6,228.7 L 168.9,228.1 L 168.2,227.4 L 167.4,226.8 L 166.7,226.2 L 166.0,225.6 L 165.3,225.0 L 164.6,224.5" fill="none" stroke="#ffffff" stroke-width="40" stroke-linecap="round"/></svg>